<?xml version="1.0" standalone="no"?>
<!DOCTYPE svg PUBLIC "-//W3C//DTD SVG 20010904//EN"
 "http://www.w3.org/TR/2001/REC-SVG-20010904/DTD/svg10.dtd">
<svg version="1.0" xmlns="http://www.w3.org/2000/svg"
 width="97.000000pt" height="97.000000pt" viewBox="0 0 97.000000 97.000000"
 preserveAspectRatio="xMidYMid meet">
<metadata>
Created by potrace 1.14, written by Peter Selinger 2001-2017
</metadata>
<g transform="translate(0.000000,97.000000) scale(0.100000,-0.100000)"
fill="#000000" stroke="none">
<path d="M360 938 c-70 -11 -166 -56 -217 -101 -38 -34 -90 -117 -98 -154 -2
-10 -8 -38 -14 -63 -14 -62 -5 -167 19 -232 11 -30 39 -75 61 -99 56 -60 61
-117 19 -203 -16 -32 -28 -62 -25 -66 15 -24 138 30 209 93 l49 42 141 0 c159
0 213 13 302 71 103 68 150 179 141 334 -11 193 -98 310 -271 361 -79 24 -224
31 -316 17z"/>
</g>
</svg>
